<?xml version="1.0" encoding="UTF-8"?>
<svg id="mermaid-1782542834404" width="100%" xmlns="http://www.w3.org/2000/svg" xmlns:xlink="http://www.w3.org/1999/xlink" viewBox="0 0 885.21875 450" style="max-width: 885.21875px;" role="graphics-document document" aria-roledescription="pie"><style>#mermaid-1782542834404{font-family:"trebuchet ms",verdana,arial,sans-serif;font-size:16px;fill:#333;}#mermaid-1782542834404 .error-icon{fill:#552222;}#mermaid-1782542834404 .error-text{fill:#552222;stroke:#552222;}#mermaid-1782542834404 .edge-thickness-normal{stroke-width:2px;}#mermaid-1782542834404 .edge-thickness-thick{stroke-width:3.5px;}#mermaid-1782542834404 .edge-pattern-solid{stroke-dasharray:0;}#mermaid-1782542834404 .edge-pattern-dashed{stroke-dasharray:3;}#mermaid-1782542834404 .edge-pattern-dotted{stroke-dasharray:2;}#mermaid-1782542834404 .marker{fill:#333333;stroke:#333333;}#mermaid-1782542834404 .marker.cross{stroke:#333333;}#mermaid-1782542834404 svg{font-family:"trebuchet ms",verdana,arial,sans-serif;font-size:16px;}#mermaid-1782542834404 .pieCircle{stroke:black;stroke-width:2px;opacity:0.7;}#mermaid-1782542834404 .pieOuterCircle{stroke:black;stroke-width:2px;fill:none;}#mermaid-1782542834404 .pieTitleText{text-anchor:middle;font-size:25px;fill:black;font-family:"trebuchet ms",verdana,arial,sans-serif;}#mermaid-1782542834404 .slice{font-family:"trebuchet ms",verdana,arial,sans-serif;fill:#333;font-size:17px;}#mermaid-1782542834404 .legend text{fill:black;font-family:"trebuchet ms",verdana,arial,sans-serif;font-size:17px;}#mermaid-1782542834404 :root{--mermaid-font-family:"trebuchet ms",verdana,arial,sans-serif;}</style><g></g><g transform="translate(225,225)"><circle cx="0" cy="0" r="186" class="pieOuterCircle"></circle><path d="M0,-185A185,185,0,0,1,165.207,-83.257L0,0Z" fill="#ECECFF" class="pieCircle"></path><path d="M165.207,-83.257A185,185,0,0,1,155.165,100.741L0,0Z" fill="#ffffde" class="pieCircle"></path><path d="M155.165,100.741A185,185,0,0,1,14.484,184.432L0,0Z" fill="hsl(80, 100%, 56.2745098039%)" class="pieCircle"></path><path d="M14.484,184.432A185,185,0,0,1,-125.59,135.839L0,0Z" fill="hsl(240, 100%, 86.2745098039%)" class="pieCircle"></path><path d="M-125.59,135.839A185,185,0,0,1,-178.751,47.679L0,0Z" fill="hsl(60, 100%, 63.5294117647%)" class="pieCircle"></path><path d="M-178.751,47.679A185,185,0,0,1,-179.306,-45.543L0,0Z" fill="hsl(80, 100%, 76.2745098039%)" class="pieCircle"></path><path d="M-179.306,-45.543A185,185,0,0,1,-149.073,-109.555L0,0Z" fill="hsl(300, 100%, 76.2745098039%)" class="pieCircle"></path><path d="M-149.073,-109.555A185,185,0,0,1,-105.192,-152.183L0,0Z" fill="hsl(180, 100%, 56.2745098039%)" class="pieCircle"></path><path d="M-105.192,-152.183A185,185,0,0,1,-68.899,-171.691L0,0Z" fill="hsl(0, 100%, 56.2745098039%)" class="pieCircle"></path><path d="M-68.899,-171.691A185,185,0,0,1,-35.396,-181.582L0,0Z" fill="hsl(300, 100%, 56.2745098039%)" class="pieCircle"></path><path d="M-35.396,-181.582A185,185,0,0,1,-10.081,-184.725L0,0Z" fill="hsl(150, 100%, 56.2745098039%)" class="pieCircle"></path><path d="M-10.081,-184.725A185,185,0,0,1,0,-185L0,0Z" fill="hsl(0, 100%, 66.2745098039%)" class="pieCircle"></path><text transform="translate(72.75851580710439,-118.14296795640162)" class="slice" style="text-anchor: middle;">18%</text><text transform="translate(138.54385476786769,7.560608841884735)" class="slice" style="text-anchor: middle;">17%</text><text transform="translate(70.93852980233167,119.24465392412233)" class="slice" style="text-anchor: middle;">15%</text><text transform="translate(-45.475437469758184,131.0860293354487)" class="slice" style="text-anchor: middle;">13%</text><text transform="translate(-118.81953765302461,71.64830753005592)" class="slice" style="text-anchor: middle;">9%</text><text transform="translate(-138.74753330354332,0.8273464704306315)" class="slice" style="text-anchor: middle;">8%</text><text transform="translate(-125.46008041919369,-59.256482524779095)" class="slice" style="text-anchor: middle;">6%</text><text transform="translate(-96.68005150970527,-99.5215059174686)" class="slice" style="text-anchor: middle;">5%</text><text transform="translate(-65.69276916969865,-122.21302131449288)" class="slice" style="text-anchor: middle;">4%</text><text transform="translate(-39.286231939299164,-133.07198984012973)" class="slice" style="text-anchor: middle;">3%</text><text transform="translate(-17.094448431053678,-137.69292767908615)" class="slice" style="text-anchor: middle;">2%</text><text transform="translate(-3.78170933298429,-138.69845411727133)" class="slice" style="text-anchor: middle;">1%</text><text x="0" y="-200" class="pieTitleText">Data items by category</text><g class="legend" transform="translate(216,-132)"><rect width="18" height="18" style="fill: rgb(236, 236, 255); stroke: rgb(236, 236, 255);"></rect><text x="22" y="14">Manufacturing [648]</text></g><g class="legend" transform="translate(216,-110)"><rect width="18" height="18" style="fill: rgb(255, 255, 222); stroke: rgb(255, 255, 222);"></rect><text x="22" y="14">Finance / Accounting [612]</text></g><g class="legend" transform="translate(216,-88)"><rect width="18" height="18" style="fill: rgb(181, 255, 32); stroke: rgb(181, 255, 32);"></rect><text x="22" y="14">Sales / Order Management [538]</text></g><g class="legend" transform="translate(216,-66)"><rect width="18" height="18" style="fill: rgb(185, 185, 255); stroke: rgb(185, 185, 255);"></rect><text x="22" y="14">Customer Relationship Management (CRM) [484]</text></g><g class="legend" transform="translate(216,-44)"><rect width="18" height="18" style="fill: rgb(255, 255, 69); stroke: rgb(255, 255, 69);"></rect><text x="22" y="14">Healthcare [331]</text></g><g class="legend" transform="translate(216,-22)"><rect width="18" height="18" style="fill: rgb(215, 255, 134); stroke: rgb(215, 255, 134);"></rect><text x="22" y="14">Product Master Data [299]</text></g><g class="legend" transform="translate(216,0)"><rect width="18" height="18" style="fill: rgb(255, 134, 255); stroke: rgb(255, 134, 255);"></rect><text x="22" y="14">Supply Chain / Logistics [226]</text></g><g class="legend" transform="translate(216,22)"><rect width="18" height="18" style="fill: rgb(32, 255, 255); stroke: rgb(32, 255, 255);"></rect><text x="22" y="14">Human Resources [195]</text></g><g class="legend" transform="translate(216,44)"><rect width="18" height="18" style="fill: rgb(255, 32, 32); stroke: rgb(255, 32, 32);"></rect><text x="22" y="14">Inventory / Warehouse [131]</text></g><g class="legend" transform="translate(216,66)"><rect width="18" height="18" style="fill: rgb(255, 32, 255); stroke: rgb(255, 32, 255);"></rect><text x="22" y="14">Procurement / Purchasing [111]</text></g><g class="legend" transform="translate(216,88)"><rect width="18" height="18" style="fill: rgb(32, 255, 144); stroke: rgb(32, 255, 144);"></rect><text x="22" y="14">Quality Management [81]</text></g><g class="legend" transform="translate(216,110)"><rect width="18" height="18" style="fill: rgb(255, 83, 83); stroke: rgb(255, 83, 83);"></rect><text x="22" y="14">Maintenance / Asset Management [32]</text></g></g></svg>