<?xml version="1.0" encoding="UTF-8"?>
<svg id="mermaid-1781469237864" width="100%" xmlns="http://www.w3.org/2000/svg" xmlns:xlink="http://www.w3.org/1999/xlink" viewBox="0 0 885.21875 450" style="max-width: 885.21875px;" role="graphics-document document" aria-roledescription="pie"><style>#mermaid-1781469237864{font-family:"trebuchet ms",verdana,arial,sans-serif;font-size:16px;fill:#333;}#mermaid-1781469237864 .error-icon{fill:#552222;}#mermaid-1781469237864 .error-text{fill:#552222;stroke:#552222;}#mermaid-1781469237864 .edge-thickness-normal{stroke-width:2px;}#mermaid-1781469237864 .edge-thickness-thick{stroke-width:3.5px;}#mermaid-1781469237864 .edge-pattern-solid{stroke-dasharray:0;}#mermaid-1781469237864 .edge-pattern-dashed{stroke-dasharray:3;}#mermaid-1781469237864 .edge-pattern-dotted{stroke-dasharray:2;}#mermaid-1781469237864 .marker{fill:#333333;stroke:#333333;}#mermaid-1781469237864 .marker.cross{stroke:#333333;}#mermaid-1781469237864 svg{font-family:"trebuchet ms",verdana,arial,sans-serif;font-size:16px;}#mermaid-1781469237864 .pieCircle{stroke:black;stroke-width:2px;opacity:0.7;}#mermaid-1781469237864 .pieOuterCircle{stroke:black;stroke-width:2px;fill:none;}#mermaid-1781469237864 .pieTitleText{text-anchor:middle;font-size:25px;fill:black;font-family:"trebuchet ms",verdana,arial,sans-serif;}#mermaid-1781469237864 .slice{font-family:"trebuchet ms",verdana,arial,sans-serif;fill:#333;font-size:17px;}#mermaid-1781469237864 .legend text{fill:black;font-family:"trebuchet ms",verdana,arial,sans-serif;font-size:17px;}#mermaid-1781469237864 :root{--mermaid-font-family:"trebuchet ms",verdana,arial,sans-serif;}</style><g></g><g transform="translate(225,225)"><circle cx="0" cy="0" r="186" class="pieOuterCircle"></circle><path d="M0,-185A185,185,0,0,1,176.156,-56.516L0,0Z" fill="#ECECFF" class="pieCircle"></path><path d="M176.156,-56.516A185,185,0,0,1,129.223,132.388L0,0Z" fill="#ffffde" class="pieCircle"></path><path d="M129.223,132.388A185,185,0,0,1,-40.994,180.401L0,0Z" fill="hsl(80, 100%, 56.2745098039%)" class="pieCircle"></path><path d="M-40.994,180.401A185,185,0,0,1,-144.554,115.452L0,0Z" fill="hsl(240, 100%, 86.2745098039%)" class="pieCircle"></path><path d="M-144.554,115.452A185,185,0,0,1,-184.687,10.757L0,0Z" fill="hsl(60, 100%, 63.5294117647%)" class="pieCircle"></path><path d="M-184.687,10.757A185,185,0,0,1,-169.87,-73.275L0,0Z" fill="hsl(80, 100%, 76.2745098039%)" class="pieCircle"></path><path d="M-169.87,-73.275A185,185,0,0,1,-127.715,-133.843L0,0Z" fill="hsl(300, 100%, 76.2745098039%)" class="pieCircle"></path><path d="M-127.715,-133.843A185,185,0,0,1,-87.424,-163.04L0,0Z" fill="hsl(180, 100%, 56.2745098039%)" class="pieCircle"></path><path d="M-87.424,-163.04A185,185,0,0,1,-48.203,-178.61L0,0Z" fill="hsl(0, 100%, 56.2745098039%)" class="pieCircle"></path><path d="M-48.203,-178.61A185,185,0,0,1,-17.878,-184.134L0,0Z" fill="hsl(300, 100%, 56.2745098039%)" class="pieCircle"></path><path d="M-17.878,-184.134A185,185,0,0,1,-5.714,-184.912L0,0Z" fill="hsl(150, 100%, 56.2745098039%)" class="pieCircle"></path><path d="M-5.714,-184.912A185,185,0,0,1,0,-185L0,0Z" fill="hsl(0, 100%, 66.2745098039%)" class="pieCircle"></path><text transform="translate(81.76311503315985,-112.09975700274407)" class="slice" style="text-anchor: middle;">20%</text><text transform="translate(134.65613702044385,33.4557508170337)" class="slice" style="text-anchor: middle;">18%</text><text transform="translate(37.66751886033125,133.53920968354797)" class="slice" style="text-anchor: middle;">16%</text><text transform="translate(-73.72005487630977,117.54537850989242)" class="slice" style="text-anchor: middle;">11%</text><text transform="translate(-129.55731026234133,49.66352643124959)" class="slice" style="text-anchor: middle;">10%</text><text transform="translate(-136.64207573044385,-24.093684651286665)" class="slice" style="text-anchor: middle;">7%</text><text transform="translate(-113.88224385530383,-79.26157350495329)" class="slice" style="text-anchor: middle;">6%</text><text transform="translate(-81.4164405465562,-112.35179441704115)" class="slice" style="text-anchor: middle;">4%</text><text transform="translate(-51.19415730211775,-128.9601518226697)" class="slice" style="text-anchor: middle;">4%</text><text transform="translate(-24.86714060539464,-136.50343518795245)" class="slice" style="text-anchor: middle;">3%</text><text transform="translate(-8.851916317566321,-138.46734661105774)" class="slice" style="text-anchor: middle;">1%</text><text transform="translate(-2.1429628793471682,-138.73345022054968)" class="slice" style="text-anchor: middle;">0%</text><text x="0" y="-200" class="pieTitleText">Data items by category</text><g class="legend" transform="translate(216,-132)"><rect width="18" height="18" style="fill: rgb(236, 236, 255); stroke: rgb(236, 236, 255);"></rect><text x="22" y="14">Finance / Accounting [612]</text></g><g class="legend" transform="translate(216,-110)"><rect width="18" height="18" style="fill: rgb(255, 255, 222); stroke: rgb(255, 255, 222);"></rect><text x="22" y="14">Sales / Order Management [538]</text></g><g class="legend" transform="translate(216,-88)"><rect width="18" height="18" style="fill: rgb(181, 255, 32); stroke: rgb(181, 255, 32);"></rect><text x="22" y="14">Customer Relationship Management (CRM) [484]</text></g><g class="legend" transform="translate(216,-66)"><rect width="18" height="18" style="fill: rgb(185, 185, 255); stroke: rgb(185, 185, 255);"></rect><text x="22" y="14">Healthcare [327]</text></g><g class="legend" transform="translate(216,-44)"><rect width="18" height="18" style="fill: rgb(255, 255, 69); stroke: rgb(255, 255, 69);"></rect><text x="22" y="14">Product Master Data [299]</text></g><g class="legend" transform="translate(216,-22)"><rect width="18" height="18" style="fill: rgb(215, 255, 134); stroke: rgb(215, 255, 134);"></rect><text x="22" y="14">Supply Chain / Logistics [226]</text></g><g class="legend" transform="translate(216,0)"><rect width="18" height="18" style="fill: rgb(255, 134, 255); stroke: rgb(255, 134, 255);"></rect><text x="22" y="14">Human Resources [195]</text></g><g class="legend" transform="translate(216,22)"><rect width="18" height="18" style="fill: rgb(32, 255, 255); stroke: rgb(32, 255, 255);"></rect><text x="22" y="14">Inventory / Warehouse [131]</text></g><g class="legend" transform="translate(216,44)"><rect width="18" height="18" style="fill: rgb(255, 32, 32); stroke: rgb(255, 32, 32);"></rect><text x="22" y="14">Procurement / Purchasing [111]</text></g><g class="legend" transform="translate(216,66)"><rect width="18" height="18" style="fill: rgb(255, 32, 255); stroke: rgb(255, 32, 255);"></rect><text x="22" y="14">Quality Management [81]</text></g><g class="legend" transform="translate(216,88)"><rect width="18" height="18" style="fill: rgb(32, 255, 144); stroke: rgb(32, 255, 144);"></rect><text x="22" y="14">Maintenance / Asset Management [32]</text></g><g class="legend" transform="translate(216,110)"><rect width="18" height="18" style="fill: rgb(255, 83, 83); stroke: rgb(255, 83, 83);"></rect><text x="22" y="14">Manufacturing [15]</text></g></g></svg>